PathFileType	4	(X/Y/Z)	Patient4_TMGait_0pt8_01_left_26.trc.trc
DataRate	CameraRate	NumFrames	NumMarkers	Units	OrigDataRate	OrigDataStartFrame	OrigNumFrames
86.419753086420	86.419753086420	4	33	mm	86.419753086420	18	       141
Frame#	Time	Sacral			L.Shoulder			Chest			R.Shoulder			Neck			R.ASIS			L.ASIS			R.Thigh.Superior			R.Thigh.Lateral			R.Thigh.Inferior			R.Patella			L.Thigh.Superior			L.Thigh.Lateral			L.Thigh.Inferior			L.Patella			L.Shank.Superior			L.Shank.Lateral			L.Shank.Inferior			R.Shank.Superior			R.Shank.Lateral			R.Shank.Inferior			R.Heel			R.Midfoot.Superior			R.Midfoot.Lateral			R.Toe			L.Heel			L.Midfoot.Lateral			L.Midfoot.Superior			L.Toe			L.Elbow			L.Wrist			R.Elbow			R.Wrist			
		X1	Y1	Z1	X2	Y2	Z2	X3	Y3	Z3	X4	Y4	Z4	X5	Y5	Z5	X6	Y6	Z6	X7	Y7	Z7	X8	Y8	Z8	X9	Y9	Z9	X10	Y10	Z10	X11	Y11	Z11	X12	Y12	Z12	X13	Y13	Z13	X14	Y14	Z14	X15	Y15	Z15	X16	Y16	Z16	X17	Y17	Z17	X18	Y18	Z18	X19	Y19	Z19	X20	Y20	Z20	X21	Y21	Z21	X22	Y22	Z22	X23	Y23	Z23	X24	Y24	Z24	X25	Y25	Z25	X26	Y26	Z26	X27	Y27	Z27	X28	Y28	Z28	X29	Y29	Z29	X30	Y30	Z30	X31	Y31	Z31	X32	Y32	Z32	X33	Y33	Z33	

18	28.666714285714	890.168679995204	1004.820953340146	507.250519086191	1029.718296747345	1425.211897821761	301.034078688200	1165.794195728047	1354.848161295772	435.809310928167	1124.125958103549	1430.650148707251	623.661385080122	1048.556526982048	1485.694061838965	456.566869004739	1125.292962590435	933.066370028953	590.518169455222	1076.150709334327	951.500095718233	319.145791352388	1111.432233554912	719.290822570907	567.947993848991	1002.978500967043	630.847885374978	634.068009425527	1055.551578954882	563.566779283442	552.119910522567	1035.425998924588	481.813720245021	557.262198945852	1159.884889530137	779.515778244474	349.015454533601	1119.604281299045	646.855509490458	270.516597211113	1229.763096440292	595.814436186115	328.930735023534	1263.318575987679	535.757927910073	322.803159150939	1253.418362591757	463.792415906297	314.534872243414	1200.988996437884	325.508653689204	268.614515469233	1303.093667351352	238.586147567975	319.378708356774	998.251385110864	399.659330798345	564.439810334296	918.919084946669	300.713922901196	624.964315236856	952.618595005928	204.088032491665	558.384767764441	811.006831850151	42.896744663056	518.264082466240	979.768371385177	96.463057424892	563.705568650053	889.701013553022	36.706119387723	597.557576569517	1098.180292290055	43.374066294431	598.370239189834	1247.442066394824	48.128666934436	364.532194780189	1318.741931319070	59.789964510897	282.402447516215	1377.176393554278	149.362911447429	297.821042241084	1513.589067108694	139.811906583576	269.376514115165	870.508643388365	1104.190435853317	232.911833204417	810.159060676259	854.174262231847	244.934791773112	1277.280679286703	1125.450884055958	734.423563882753	1524.686833392625	1145.693611635900	672.342002986689	
19	28.678285714286	891.036037429253	1003.647719044056	505.233912722731	1030.211468179239	1424.026840249010	299.381577247524	1166.256179327859	1353.549949478731	434.144338994562	1124.465550457147	1429.558750891625	621.763075622519	1048.826719664413	1484.297949303437	454.968450429483	1125.628495223773	931.447663802748	589.076710743551	1077.391233436167	949.783867118913	317.494528046962	1110.067439647120	717.432756883788	566.718689008714	1000.868528190200	629.847423525733	632.902294293003	1052.689759621473	562.104946007807	550.864974156754	1031.760181101158	480.232844496724	556.059536469975	1160.004647577661	776.803926293102	347.975551640469	1118.364130255177	643.745081310381	270.401558999247	1228.605692954425	592.741455948927	328.395105719453	1261.830064535177	533.236651208042	323.260569162363	1252.669089869402	461.528320255420	315.213418564912	1201.780717301021	322.415113500776	270.441618299073	1305.255801077502	237.182969584084	321.242856273282	993.505051550029	398.428307143847	563.578491241413	912.992556005337	300.574501455672	624.460043319968	945.089648692355	203.395515720722	557.978171607143	801.738075344763	43.003828290877	518.335292973680	970.469533862109	96.313098685999	563.524273055754	880.424303536156	36.706121336368	597.600552422333	1088.903349211841	43.107508970620	598.453426901751	1252.391971662921	46.567358711142	367.559895993363	1323.316654770358	58.379653807339	285.169815263627	1380.902148156283	148.395571977365	299.991946744887	1517.365308108049	139.977114161843	271.292679987112	865.574989057137	1106.500101301480	232.501366176998	800.978200661006	857.624175892591	246.671293999380	1284.524986972046	1128.595549131786	730.208588869549	1529.457945891028	1162.444972504067	666.005559614565	
20	28.689857142857	892.040979601167	1002.306085558174	502.900073198071	1030.796807484811	1422.764938197999	297.586204177484	1166.739579863883	1352.256332119264	432.447565371861	1124.615104212420	1428.431865069943	619.792940045463	1049.058872426054	1482.843064621892	453.236557519930	1126.117198743720	929.766639514626	587.536494738813	1078.952296988891	948.051459812235	315.717286711794	1109.166030479369	715.550453668872	565.302463696196	999.333420418493	628.686821266075	631.483106581482	1050.562015889037	560.484596480412	549.433551405168	1028.764991812551	478.413279110517	554.657968883909	1160.765262796624	774.221504906529	346.791563185930	1117.678863376930	640.668618817216	270.471799503734	1227.928473114368	589.714287913266	328.036640051865	1260.570687328006	530.275114426234	323.896426067987	1251.658163022387	458.621108512119	316.102407333182	1201.112786758042	319.181599578077	272.627824829213	1305.152263874871	234.833266822076	323.519315713104	989.342448057752	396.943393819263	562.485459087777	907.495790137721	300.368368757047	623.748909888452	937.809045982485	202.578335981961	557.449545951861	792.481477825455	43.143541842786	518.418401951393	961.212078277573	96.182475462943	563.336240144269	871.176703571554	36.709337868095	597.643638509437	1079.668647211022	42.805803683538	598.547035744748	1253.361854346281	44.956030459408	371.150549683562	1323.730287617105	56.323505181235	288.300645605669	1381.460431037252	145.936645849050	302.580616812923	1517.683352467542	137.133418774714	273.162233332167	861.480211893519	1108.469078133819	231.861969797606	793.109047663630	860.645896619182	248.096767463763	1291.116053901807	1131.636775849985	725.896352552697	1533.035133689929	1178.084993447912	659.953432332207	
21	28.701428571429	893.177046398240	1000.797286048589	500.259095712586	1031.474369247837	1421.422464938153	295.639899307796	1167.246407936201	1350.971967533564	430.712782689734	1124.576292662553	1427.268041735514	617.752843989503	1049.259014495454	1481.336870349951	451.363766934156	1126.771862122334	928.034245056262	585.901596773139	1080.824610986758	946.317668900593	313.817906458112	1108.724352348953	713.642432304882	563.755543543907	998.307909950566	627.380088372406	629.822678748382	1049.132451123087	558.700113252059	547.871630162925	1026.400310727822	476.342640529072	553.089962963991	1162.137253940681	771.758047167616	345.483961980947	1117.548924458005	637.670361690466	270.672289328529	1227.699992805117	586.752915605581	327.896441223087	1259.502906558068	526.933333584761	324.754453632006	1250.462856245266	455.176165742986	317.172927370336	1199.281679093213	315.819111257451	274.990658951463	1303.171803415518	231.625982850316	326.092013114103	985.711787847876	395.219814899489	561.178741727686	902.376759702073	300.118159120774	622.841831163445	930.750948806544	201.668126700597	556.820366791619	783.228334716197	43.347648336502	518.530069407818	952.007105556114	96.078537558626	563.160418464901	861.955929506719	36.724442987344	597.696425376793	1070.482171590275	42.470321737958	598.651852266574	1250.844947197666	43.299024918791	375.017671099512	1320.576922623266	53.697440914066	291.589203830481	1379.398568933928	142.095469540740	305.507910370958	1515.154921388742	131.438809883053	275.058983944082	858.268686129504	1110.002236389011	230.985867893413	786.536320934536	863.157531314311	249.166506985398	1297.011155861915	1134.509971752008	721.537964175771	1535.523005502839	1192.532244276886	654.212787565393	
